<svg xmlns="http://www.w3.org/2000/svg" xmlns:xlink="http://www.w3.org/1999/xlink" width="80.004" height="79.899" viewBox="0 0 80.004 79.899">
  <defs>
    <radialGradient id="radial-gradient" cx="0.5" cy="0.5" r="0.779" gradientTransform="matrix(0.999, -0.038, 0.038, 0.999, -0.019, 0.019)" gradientUnits="objectBoundingBox">
      <stop offset="0" stop-color="#65ace5"/>
      <stop offset="1" stop-color="#3e5174"/>
    </radialGradient>
    <linearGradient id="linear-gradient" x1="0.5" y1="-0.889" x2="0.5" y2="1" gradientUnits="objectBoundingBox">
      <stop offset="0" stop-color="#3e5174"/>
      <stop offset="1" stop-color="#4da6ed"/>
    </linearGradient>
  </defs>
  <g id="dibujo-tecnico" transform="translate(0 -0.335)">
    <g id="Grupo_112336" data-name="Grupo 112336" transform="translate(1.172 1.402)">
      <path id="Trazado_121966" data-name="Trazado 121966" d="M215.064,20.89l.088-11.49a2.259,2.259,0,1,1,4.518.048l-.088,11.49Z" transform="translate(-182.631 -7.164)" fill="#fff"/>
      <g id="Grupo_112335" data-name="Grupo 112335" transform="translate(0 10.288)">
        <g id="Grupo_112332" data-name="Grupo 112332" transform="translate(0 0.865)">
          <path id="Trazado_121967" data-name="Trazado 121967" d="M85.16,163.185H9.063A1.563,1.563,0,0,0,7.5,164.748V214.9a1.563,1.563,0,0,0,1.563,1.563H78.531a6.629,6.629,0,0,0,6.63-6.63Z" transform="translate(-7.5 -149.958)" fill="#fff"/>
          <path id="Trazado_121969" data-name="Trazado 121969" d="M446.508,80.1v50.156a1.563,1.563,0,0,0,1.563,1.563h.867a6.632,6.632,0,0,1,6.632,6.632v-52.8a7.117,7.117,0,0,0-7.117-7.117h-.383a1.562,1.562,0,0,0-1.563,1.562Z" transform="translate(-377.91 -78.538)" fill="#fff"/>
        </g>
        <g id="Grupo_112333" data-name="Grupo 112333" transform="translate(16.416)">
          <path id="Trazado_121970" data-name="Trazado 121970" d="M126.23,138.66l-13.588,26.927a.78.78,0,0,0-.045.6l1.5,4.547a.781.781,0,0,0,1.438.107l15.175-30.073,14.536,30.385a.781.781,0,0,0,1.442-.077l1.592-4.512a.781.781,0,0,0-.032-.6l-13.016-27.208Z" transform="translate(-112.559 -128.401)" fill="#fff"/>
          <circle id="Elipse_4937" data-name="Elipse 4937" cx="6.137" cy="6.137" r="6.137" transform="translate(12.079)" fill="#fff"/>
        </g>
        <g id="Grupo_112334" data-name="Grupo 112334" transform="translate(7.606 48.14)">
          <path id="Trazado_121972" data-name="Trazado 121972" d="M56.178,392.491V381.865a.781.781,0,0,1,.781-.781h51.822a.781.781,0,0,1,.781.781v10.626a.781.781,0,0,1-.781.781H56.959A.781.781,0,0,1,56.178,392.491Z" transform="translate(-56.178 -381.084)" fill="#fff"/>
        </g>
      </g>
    </g>
    <g id="Grupo_112337" data-name="Grupo 112337" transform="translate(0 0.335)">
      <path id="Trazado_121973" data-name="Trazado 121973" d="M71.715,11.383A2.833,2.833,0,0,0,68.6,14.117V24.609H42.785l-1.144-2.392A7.376,7.376,0,0,0,39.3,11.412L39.384,3.7c.047-4.455-6.815-4.488-6.862-.072l-.081,7.707a7.389,7.389,0,0,0-2.566,10.761L28.6,24.609H2.734A2.738,2.738,0,0,0,0,27.344V77.5a2.738,2.738,0,0,0,2.735,2.735H72.2A7.81,7.81,0,0,0,80,72.5c0-.012,0-.023,0-.035v-52.8c0-2.066-2.219-5.639-2.219-5.639S74.22,11.383,71.715,11.383Zm-.773,2.735c0-.388.488-.452.773-.391a5.951,5.951,0,0,1,5.945,5.945V66.9a7.779,7.779,0,0,0-5.46-2.233c-.3.047-1.258.133-1.258-.391ZM52.148,49.612l-1.224,3.47L37.462,24.943a7.275,7.275,0,0,0,2.389-1.035ZM31.628,23.821a7.273,7.273,0,0,0,2.367,1.086L19.942,52.755l-1.151-3.5ZM39.8,35.26l-8.359-.088L35.71,26.71ZM34.866,3.65a1.088,1.088,0,0,1,2.174.023l-.073,6.938a7.424,7.424,0,0,0-2.174-.027ZM32.33,14.279a5.023,5.023,0,0,1,3.526-1.417,4.965,4.965,0,0,1-.052,9.929h-.053a4.965,4.965,0,0,1-3.421-8.512ZM72.2,77.89H2.734a.391.391,0,0,1-.391-.391V27.344a.391.391,0,0,1,.391-.391H27.422l-4.1,8.132-3.959-.042a1.173,1.173,0,0,0-.025,2.344l2.807.03L16.625,48.349a1.94,1.94,0,0,0-.111,1.49l1.5,4.547a1.968,1.968,0,0,0,3.6.269L30.263,37.5l10.663.113,8.29,17.329a1.972,1.972,0,0,0,3.6-.193l1.592-4.512a1.94,1.94,0,0,0-.08-1.493L49.048,37.7l2.807.03a1.173,1.173,0,0,0,.025-2.344l-3.959-.042-4.015-8.392H68.6V64.273c0,2.057,1.856,2.8,3.6,2.735a5.442,5.442,0,1,1,0,10.883Z" transform="translate(0 -0.335)" fill="url(#radial-gradient)"/>
      <path id="Trazado_121974" data-name="Trazado 121974" d="M102.453,373.584H50.631a1.955,1.955,0,0,0-1.953,1.953v10.626a1.955,1.955,0,0,0,1.953,1.953h51.822a1.955,1.955,0,0,0,1.953-1.953V375.537A1.956,1.956,0,0,0,102.453,373.584Zm-.391,12.188H51.022v-9.844h3.02v2.1a1.173,1.173,0,0,0,2.344,0v-2.1h2.988v3.661a1.173,1.173,0,0,0,2.344,0v-3.661h2.988v2.1a1.173,1.173,0,0,0,2.344,0v-2.1h2.988v3.661a1.173,1.173,0,0,0,2.344,0v-3.661H75.37v2.1a1.173,1.173,0,0,0,2.344,0v-2.1H80.7v3.661a1.173,1.173,0,0,0,2.344,0v-3.661h2.988v2.1a1.173,1.173,0,0,0,2.344,0v-2.1h2.988v3.661a1.173,1.173,0,0,0,2.344,0v-3.661H96.7v2.1a1.173,1.173,0,0,0,2.344,0v-2.1h3.02Z" transform="translate(-41.072 -315.261)" fill="url(#linear-gradient)"/>
    </g>
  </g>
</svg>
