<svg xmlns="http://www.w3.org/2000/svg" xmlns:xlink="http://www.w3.org/1999/xlink" width="1263.867" height="298.441" viewBox="0 0 1263.867 298.441">
  <defs>
    <filter id="Trazado_121980" x="0" y="77.145" width="319" height="221.297" filterUnits="userSpaceOnUse">
      <feOffset dx="2" dy="4" input="SourceAlpha"/>
      <feGaussianBlur stdDeviation="4" result="blur"/>
      <feFlood flood-opacity="0.161"/>
      <feComposite operator="in" in2="blur"/>
      <feComposite in="SourceGraphic"/>
    </filter>
    <filter id="Trazado_121981" x="314.867" y="77.145" width="319" height="221.297" filterUnits="userSpaceOnUse">
      <feOffset dx="2" dy="4" input="SourceAlpha"/>
      <feGaussianBlur stdDeviation="4" result="blur-2"/>
      <feFlood flood-opacity="0.161"/>
      <feComposite operator="in" in2="blur-2"/>
      <feComposite in="SourceGraphic"/>
    </filter>
    <filter id="Trazado_121982" x="629.867" y="77.145" width="319" height="221.297" filterUnits="userSpaceOnUse">
      <feOffset dx="2" dy="4" input="SourceAlpha"/>
      <feGaussianBlur stdDeviation="4" result="blur-3"/>
      <feFlood flood-opacity="0.161"/>
      <feComposite operator="in" in2="blur-3"/>
      <feComposite in="SourceGraphic"/>
    </filter>
    <filter id="Trazado_121983" x="944.867" y="77.145" width="319" height="221.297" filterUnits="userSpaceOnUse">
      <feOffset dx="2" dy="4" input="SourceAlpha"/>
      <feGaussianBlur stdDeviation="4" result="blur-4"/>
      <feFlood flood-opacity="0.161"/>
      <feComposite operator="in" in2="blur-4"/>
      <feComposite in="SourceGraphic"/>
    </filter>
    <linearGradient id="linear-gradient" x1="0.462" y1="0.882" x2="0.855" y2="0.369" gradientUnits="objectBoundingBox">
      <stop offset="0" stop-color="#a2e6b0"/>
      <stop offset="0.093" stop-color="#a2e6b0"/>
      <stop offset="0.772" stop-color="#5eb5e0"/>
      <stop offset="1" stop-color="#48a5f0"/>
    </linearGradient>
    <linearGradient id="linear-gradient-2" x1="0.734" y1="0.201" x2="0.205" y2="0.919" gradientUnits="objectBoundingBox">
      <stop offset="0" stop-color="#48a5f0"/>
      <stop offset="1" stop-color="#3d5075"/>
    </linearGradient>
    <radialGradient id="radial-gradient" cx="0.5" cy="0.5" r="0.5" gradientTransform="matrix(-1, 0, 0, 1, 1, 0)" gradientUnits="objectBoundingBox">
      <stop offset="0" stop-opacity="0.49"/>
      <stop offset="1" stop-color="#fff" stop-opacity="0"/>
    </radialGradient>
    <linearGradient id="linear-gradient-3" x1="0.189" y1="0.928" x2="0.682" y2="0.5" gradientUnits="objectBoundingBox">
      <stop offset="0" stop-color="#a2e6b0"/>
      <stop offset="0.032" stop-color="#a2e6b0"/>
      <stop offset="1" stop-color="#48a5f0"/>
    </linearGradient>
    <linearGradient id="linear-gradient-4" x1="0.793" y1="0.121" x2="0.279" y2="0.869" gradientUnits="objectBoundingBox">
      <stop offset="0" stop-color="#48a5f0"/>
      <stop offset="1" stop-color="#3d5075"/>
    </linearGradient>
  </defs>
  <g id="Grupo_112470" data-name="Grupo 112470" transform="translate(-170.133 -1563.741)">
    <g transform="matrix(1, 0, 0, 1, 170.13, 1563.74)" filter="url(#Trazado_121980)">
      <path id="Trazado_121980-2" data-name="Trazado 121980" d="M10.817,0H284.183C290.157,0,295,3.239,295,7.234V190.063c0,4-4.843,7.234-10.817,7.234H10.817C4.843,197.3,0,194.058,0,190.063V7.234C0,3.239,4.843,0,10.817,0Z" transform="translate(10 85.14)" fill="#48a5f0" opacity="0.347"/>
    </g>
    <g transform="matrix(1, 0, 0, 1, 170.13, 1563.74)" filter="url(#Trazado_121981)">
      <path id="Trazado_121981-2" data-name="Trazado 121981" d="M10.817,0H284.183C290.157,0,295,3.239,295,7.234V190.063c0,4-4.843,7.234-10.817,7.234H10.817C4.843,197.3,0,194.058,0,190.063V7.234C0,3.239,4.843,0,10.817,0Z" transform="translate(324.87 85.14)" fill="#48a5f0" opacity="0.347"/>
    </g>
    <g transform="matrix(1, 0, 0, 1, 170.13, 1563.74)" filter="url(#Trazado_121982)">
      <path id="Trazado_121982-2" data-name="Trazado 121982" d="M10.817,0H284.183C290.157,0,295,3.239,295,7.234V190.063c0,4-4.843,7.234-10.817,7.234H10.817C4.843,197.3,0,194.058,0,190.063V7.234C0,3.239,4.843,0,10.817,0Z" transform="translate(639.87 85.14)" fill="#48a5f0" opacity="0.347"/>
    </g>
    <g transform="matrix(1, 0, 0, 1, 170.13, 1563.74)" filter="url(#Trazado_121983)">
      <path id="Trazado_121983-2" data-name="Trazado 121983" d="M10.817,0H284.183C290.157,0,295,3.239,295,7.234V190.063c0,4-4.843,7.234-10.817,7.234H10.817C4.843,197.3,0,194.058,0,190.063V7.234C0,3.239,4.843,0,10.817,0Z" transform="translate(954.87 85.14)" fill="#48a5f0" opacity="0.347"/>
    </g>
    <path id="Trazado_122022" data-name="Trazado 122022" d="M56.629,6.852H52.973V17H51.48V6.852H47.832V5.625h8.8ZM59.66,17H58.215V8.547H59.66ZM58.1,6.3a.863.863,0,0,1,.215-.594.807.807,0,0,1,.637-.242.819.819,0,0,1,.641.242.854.854,0,0,1,.219.594.826.826,0,0,1-.219.586.834.834,0,0,1-.641.234.821.821,0,0,1-.637-.234A.834.834,0,0,1,58.1,6.3ZM65.48,17.156a3.693,3.693,0,0,1-2.8-1.129,4.19,4.19,0,0,1-1.078-3.02v-.266a5.073,5.073,0,0,1,.48-2.246A3.748,3.748,0,0,1,63.43,8.949,3.378,3.378,0,0,1,65.3,8.391a3.166,3.166,0,0,1,2.563,1.086,4.7,4.7,0,0,1,.914,3.109v.6H63.051a3,3,0,0,0,.73,2.02,2.3,2.3,0,0,0,1.777.77,2.517,2.517,0,0,0,1.3-.312,3.259,3.259,0,0,0,.93-.828l.883.688A3.55,3.55,0,0,1,65.48,17.156ZM65.3,9.578a1.928,1.928,0,0,0-1.469.637A3.1,3.1,0,0,0,63.1,12h4.234v-.109a2.753,2.753,0,0,0-.594-1.707A1.815,1.815,0,0,0,65.3,9.578Zm6.516-1.031.047,1.063a3.08,3.08,0,0,1,2.531-1.219q2.68,0,2.7,3.023V17H75.652V11.406a1.946,1.946,0,0,0-.418-1.352,1.675,1.675,0,0,0-1.277-.437,2.086,2.086,0,0,0-1.234.375,2.546,2.546,0,0,0-.828.984V17H70.449V8.547Zm10.969,8.609a3.693,3.693,0,0,1-2.8-1.129,4.19,4.19,0,0,1-1.078-3.02v-.266a5.073,5.073,0,0,1,.48-2.246,3.748,3.748,0,0,1,1.344-1.547,3.378,3.378,0,0,1,1.871-.559,3.166,3.166,0,0,1,2.563,1.086,4.7,4.7,0,0,1,.914,3.109v.6H80.355a3,3,0,0,0,.73,2.02,2.3,2.3,0,0,0,1.777.77,2.517,2.517,0,0,0,1.3-.312,3.259,3.259,0,0,0,.93-.828l.883.688A3.55,3.55,0,0,1,82.785,17.156Zm-.18-7.578a1.928,1.928,0,0,0-1.469.637A3.1,3.1,0,0,0,80.4,12h4.234v-.109a2.753,2.753,0,0,0-.594-1.707A1.815,1.815,0,0,0,82.605,9.578Zm16.3-3.141L94.2,17H92.684l4.7-10.187H91.223V5.625H98.91ZM106.23,17h-1.445V5h1.445Zm7.531,0a3.036,3.036,0,0,1-.2-.891,3.225,3.225,0,0,1-2.406,1.047,2.984,2.984,0,0,1-2.051-.707,2.288,2.288,0,0,1-.8-1.793,2.39,2.39,0,0,1,1-2.051,4.733,4.733,0,0,1,2.824-.73h1.406v-.664A1.623,1.623,0,0,0,113.082,10a1.821,1.821,0,0,0-1.336-.449,2.108,2.108,0,0,0-1.3.391,1.151,1.151,0,0,0-.523.945h-1.453a2,2,0,0,1,.449-1.223,3.066,3.066,0,0,1,1.219-.934,4.1,4.1,0,0,1,1.691-.344,3.342,3.342,0,0,1,2.289.73,2.635,2.635,0,0,1,.859,2.012v3.891a4.757,4.757,0,0,0,.3,1.852V17Zm-2.4-1.1a2.54,2.54,0,0,0,1.289-.352,2.127,2.127,0,0,0,.883-.914V12.9H112.4q-2.656,0-2.656,1.555a1.316,1.316,0,0,0,.453,1.063A1.742,1.742,0,0,0,111.363,15.9Zm5.531-3.2a4.952,4.952,0,0,1,.922-3.129,3.137,3.137,0,0,1,4.766-.168V5h1.445V17H122.7l-.07-.906a2.943,2.943,0,0,1-2.414,1.063,2.887,2.887,0,0,1-2.395-1.2,5.008,5.008,0,0,1-.926-3.141Zm1.445.164a3.749,3.749,0,0,0,.594,2.25,1.92,1.92,0,0,0,1.641.813,2.108,2.108,0,0,0,2.008-1.234V10.813a2.125,2.125,0,0,0-1.992-1.2,1.929,1.929,0,0,0-1.656.82A4.128,4.128,0,0,0,118.34,12.867Zm7.547-.172a4.993,4.993,0,0,1,.488-2.234,3.643,3.643,0,0,1,1.359-1.531,3.7,3.7,0,0,1,1.988-.539,3.565,3.565,0,0,1,2.793,1.2,4.6,4.6,0,0,1,1.066,3.18v.1a5.036,5.036,0,0,1-.473,2.215,3.589,3.589,0,0,1-1.352,1.527,3.743,3.743,0,0,1-2.02.547,3.556,3.556,0,0,1-2.785-1.2,4.575,4.575,0,0,1-1.066-3.164Zm1.453.172a3.616,3.616,0,0,0,.652,2.258,2.211,2.211,0,0,0,3.5-.012,3.954,3.954,0,0,0,.648-2.418,3.61,3.61,0,0,0-.66-2.254,2.1,2.1,0,0,0-1.754-.863A2.075,2.075,0,0,0,128,10.43,3.925,3.925,0,0,0,127.34,12.867Zm12.977,1.891a1.064,1.064,0,0,0-.441-.91,4.249,4.249,0,0,0-1.539-.559,7.277,7.277,0,0,1-1.742-.562,2.479,2.479,0,0,1-.953-.781,1.869,1.869,0,0,1-.309-1.078,2.193,2.193,0,0,1,.879-1.758,3.432,3.432,0,0,1,2.246-.719,3.532,3.532,0,0,1,2.332.742,2.357,2.357,0,0,1,.895,1.9H140.23a1.3,1.3,0,0,0-.5-1.023,1.888,1.888,0,0,0-1.27-.43,1.976,1.976,0,0,0-1.234.344,1.082,1.082,0,0,0-.445.9.877.877,0,0,0,.414.789,5.1,5.1,0,0,0,1.5.508,7.8,7.8,0,0,1,1.754.578,2.558,2.558,0,0,1,1,.809,1.988,1.988,0,0,1,.324,1.152,2.163,2.163,0,0,1-.906,1.816,3.8,3.8,0,0,1-2.352.684,4.257,4.257,0,0,1-1.8-.359,2.922,2.922,0,0,1-1.223-1,2.42,2.42,0,0,1-.441-1.395h1.445a1.5,1.5,0,0,0,.582,1.152,2.258,2.258,0,0,0,1.434.426,2.331,2.331,0,0,0,1.316-.332A1.02,1.02,0,0,0,140.316,14.758Z" transform="translate(232.133 1785.717)" fill="#12263f"/>
    <path id="Trazado_122019" data-name="Trazado 122019" d="M56.629,6.852H52.973V17H51.48V6.852H47.832V5.625h8.8ZM59.66,17H58.215V8.547H59.66ZM58.1,6.3a.863.863,0,0,1,.215-.594.807.807,0,0,1,.637-.242.819.819,0,0,1,.641.242.854.854,0,0,1,.219.594.826.826,0,0,1-.219.586.834.834,0,0,1-.641.234.821.821,0,0,1-.637-.234A.834.834,0,0,1,58.1,6.3ZM65.48,17.156a3.693,3.693,0,0,1-2.8-1.129,4.19,4.19,0,0,1-1.078-3.02v-.266a5.073,5.073,0,0,1,.48-2.246A3.748,3.748,0,0,1,63.43,8.949,3.378,3.378,0,0,1,65.3,8.391a3.166,3.166,0,0,1,2.563,1.086,4.7,4.7,0,0,1,.914,3.109v.6H63.051a3,3,0,0,0,.73,2.02,2.3,2.3,0,0,0,1.777.77,2.517,2.517,0,0,0,1.3-.312,3.259,3.259,0,0,0,.93-.828l.883.688A3.55,3.55,0,0,1,65.48,17.156ZM65.3,9.578a1.928,1.928,0,0,0-1.469.637A3.1,3.1,0,0,0,63.1,12h4.234v-.109a2.753,2.753,0,0,0-.594-1.707A1.815,1.815,0,0,0,65.3,9.578Zm6.516-1.031.047,1.063a3.08,3.08,0,0,1,2.531-1.219q2.68,0,2.7,3.023V17H75.652V11.406a1.946,1.946,0,0,0-.418-1.352,1.675,1.675,0,0,0-1.277-.437,2.086,2.086,0,0,0-1.234.375,2.546,2.546,0,0,0-.828.984V17H70.449V8.547Zm10.969,8.609a3.693,3.693,0,0,1-2.8-1.129,4.19,4.19,0,0,1-1.078-3.02v-.266a5.073,5.073,0,0,1,.48-2.246,3.748,3.748,0,0,1,1.344-1.547,3.378,3.378,0,0,1,1.871-.559,3.166,3.166,0,0,1,2.563,1.086,4.7,4.7,0,0,1,.914,3.109v.6H80.355a3,3,0,0,0,.73,2.02,2.3,2.3,0,0,0,1.777.77,2.517,2.517,0,0,0,1.3-.312,3.259,3.259,0,0,0,.93-.828l.883.688A3.55,3.55,0,0,1,82.785,17.156Zm-.18-7.578a1.928,1.928,0,0,0-1.469.637A3.1,3.1,0,0,0,80.4,12h4.234v-.109a2.753,2.753,0,0,0-.594-1.707A1.815,1.815,0,0,0,82.605,9.578Zm15.859-.984a2.641,2.641,0,0,1-.449,1.516A3.057,3.057,0,0,1,96.8,11.148a3.26,3.26,0,0,1,1.41,1.117,2.811,2.811,0,0,1,.52,1.664,2.972,2.972,0,0,1-1,2.352,4.367,4.367,0,0,1-5.25,0A2.986,2.986,0,0,1,91.5,13.93a2.9,2.9,0,0,1,.5-1.664,3.136,3.136,0,0,1,1.395-1.125A2.981,2.981,0,0,1,92.2,10.1a2.679,2.679,0,0,1-.437-1.508,2.94,2.94,0,0,1,.922-2.281,3.915,3.915,0,0,1,4.855,0A2.934,2.934,0,0,1,98.465,8.594Zm-1.18,5.3a2.1,2.1,0,0,0-.605-1.555,2.147,2.147,0,0,0-1.582-.6A2.034,2.034,0,0,0,92.941,13.9a2.019,2.019,0,0,0,.574,1.523,2.565,2.565,0,0,0,3.191,0A2.014,2.014,0,0,0,97.285,13.9ZM95.113,6.656a1.865,1.865,0,0,0-1.379.527,1.937,1.937,0,0,0-.527,1.434,1.928,1.928,0,0,0,.52,1.4,2.064,2.064,0,0,0,2.773,0,1.928,1.928,0,0,0,.52-1.4A1.929,1.929,0,0,0,96.48,7.2,1.839,1.839,0,0,0,95.113,6.656ZM106.23,17h-1.445V5h1.445Zm7.531,0a3.036,3.036,0,0,1-.2-.891,3.225,3.225,0,0,1-2.406,1.047,2.984,2.984,0,0,1-2.051-.707,2.288,2.288,0,0,1-.8-1.793,2.39,2.39,0,0,1,1-2.051,4.733,4.733,0,0,1,2.824-.73h1.406v-.664A1.623,1.623,0,0,0,113.082,10a1.821,1.821,0,0,0-1.336-.449,2.108,2.108,0,0,0-1.3.391,1.151,1.151,0,0,0-.523.945h-1.453a2,2,0,0,1,.449-1.223,3.066,3.066,0,0,1,1.219-.934,4.1,4.1,0,0,1,1.691-.344,3.342,3.342,0,0,1,2.289.73,2.635,2.635,0,0,1,.859,2.012v3.891a4.757,4.757,0,0,0,.3,1.852V17Zm-2.4-1.1a2.54,2.54,0,0,0,1.289-.352,2.127,2.127,0,0,0,.883-.914V12.9H112.4q-2.656,0-2.656,1.555a1.316,1.316,0,0,0,.453,1.063A1.742,1.742,0,0,0,111.363,15.9Zm5.531-3.2a4.952,4.952,0,0,1,.922-3.129,3.137,3.137,0,0,1,4.766-.168V5h1.445V17H122.7l-.07-.906a2.943,2.943,0,0,1-2.414,1.063,2.887,2.887,0,0,1-2.395-1.2,5.008,5.008,0,0,1-.926-3.141Zm1.445.164a3.749,3.749,0,0,0,.594,2.25,1.92,1.92,0,0,0,1.641.813,2.108,2.108,0,0,0,2.008-1.234V10.813a2.125,2.125,0,0,0-1.992-1.2,1.929,1.929,0,0,0-1.656.82A4.128,4.128,0,0,0,118.34,12.867Zm7.547-.172a4.993,4.993,0,0,1,.488-2.234,3.643,3.643,0,0,1,1.359-1.531,3.7,3.7,0,0,1,1.988-.539,3.565,3.565,0,0,1,2.793,1.2,4.6,4.6,0,0,1,1.066,3.18v.1a5.036,5.036,0,0,1-.473,2.215,3.589,3.589,0,0,1-1.352,1.527,3.743,3.743,0,0,1-2.02.547,3.556,3.556,0,0,1-2.785-1.2,4.575,4.575,0,0,1-1.066-3.164Zm1.453.172a3.616,3.616,0,0,0,.652,2.258,2.211,2.211,0,0,0,3.5-.012,3.954,3.954,0,0,0,.648-2.418,3.61,3.61,0,0,0-.66-2.254,2.1,2.1,0,0,0-1.754-.863A2.075,2.075,0,0,0,128,10.43,3.925,3.925,0,0,0,127.34,12.867Zm12.977,1.891a1.064,1.064,0,0,0-.441-.91,4.249,4.249,0,0,0-1.539-.559,7.277,7.277,0,0,1-1.742-.562,2.479,2.479,0,0,1-.953-.781,1.869,1.869,0,0,1-.309-1.078,2.193,2.193,0,0,1,.879-1.758,3.432,3.432,0,0,1,2.246-.719,3.532,3.532,0,0,1,2.332.742,2.357,2.357,0,0,1,.895,1.9H140.23a1.3,1.3,0,0,0-.5-1.023,1.888,1.888,0,0,0-1.27-.43,1.976,1.976,0,0,0-1.234.344,1.082,1.082,0,0,0-.445.9.877.877,0,0,0,.414.789,5.1,5.1,0,0,0,1.5.508,7.8,7.8,0,0,1,1.754.578,2.558,2.558,0,0,1,1,.809,1.988,1.988,0,0,1,.324,1.152,2.163,2.163,0,0,1-.906,1.816,3.8,3.8,0,0,1-2.352.684,4.257,4.257,0,0,1-1.8-.359,2.922,2.922,0,0,1-1.223-1,2.42,2.42,0,0,1-.441-1.395h1.445a1.5,1.5,0,0,0,.582,1.152,2.258,2.258,0,0,0,1.434.426,2.331,2.331,0,0,0,1.316-.332A1.02,1.02,0,0,0,140.316,14.758Z" transform="translate(547 1785.717)" fill="#12263f"/>
    <path id="Trazado_122020" data-name="Trazado 122020" d="M56.629,6.852H52.973V17H51.48V6.852H47.832V5.625h8.8ZM59.66,17H58.215V8.547H59.66ZM58.1,6.3a.863.863,0,0,1,.215-.594.807.807,0,0,1,.637-.242.819.819,0,0,1,.641.242.854.854,0,0,1,.219.594.826.826,0,0,1-.219.586.834.834,0,0,1-.641.234.821.821,0,0,1-.637-.234A.834.834,0,0,1,58.1,6.3ZM65.48,17.156a3.693,3.693,0,0,1-2.8-1.129,4.19,4.19,0,0,1-1.078-3.02v-.266a5.073,5.073,0,0,1,.48-2.246A3.748,3.748,0,0,1,63.43,8.949,3.378,3.378,0,0,1,65.3,8.391a3.166,3.166,0,0,1,2.563,1.086,4.7,4.7,0,0,1,.914,3.109v.6H63.051a3,3,0,0,0,.73,2.02,2.3,2.3,0,0,0,1.777.77,2.517,2.517,0,0,0,1.3-.312,3.259,3.259,0,0,0,.93-.828l.883.688A3.55,3.55,0,0,1,65.48,17.156ZM65.3,9.578a1.928,1.928,0,0,0-1.469.637A3.1,3.1,0,0,0,63.1,12h4.234v-.109a2.753,2.753,0,0,0-.594-1.707A1.815,1.815,0,0,0,65.3,9.578Zm6.516-1.031.047,1.063a3.08,3.08,0,0,1,2.531-1.219q2.68,0,2.7,3.023V17H75.652V11.406a1.946,1.946,0,0,0-.418-1.352,1.675,1.675,0,0,0-1.277-.437,2.086,2.086,0,0,0-1.234.375,2.546,2.546,0,0,0-.828.984V17H70.449V8.547Zm10.969,8.609a3.693,3.693,0,0,1-2.8-1.129,4.19,4.19,0,0,1-1.078-3.02v-.266a5.073,5.073,0,0,1,.48-2.246,3.748,3.748,0,0,1,1.344-1.547,3.378,3.378,0,0,1,1.871-.559,3.166,3.166,0,0,1,2.563,1.086,4.7,4.7,0,0,1,.914,3.109v.6H80.355a3,3,0,0,0,.73,2.02,2.3,2.3,0,0,0,1.777.77,2.517,2.517,0,0,0,1.3-.312,3.259,3.259,0,0,0,.93-.828l.883.688A3.55,3.55,0,0,1,82.785,17.156Zm-.18-7.578a1.928,1.928,0,0,0-1.469.637A3.1,3.1,0,0,0,80.4,12h4.234v-.109a2.753,2.753,0,0,0-.594-1.707A1.815,1.815,0,0,0,82.605,9.578ZM97.105,12a3.536,3.536,0,0,1-1.082.867,2.936,2.936,0,0,1-1.379.328,3.031,3.031,0,0,1-1.715-.484A3.149,3.149,0,0,1,91.8,11.348a4.648,4.648,0,0,1-.4-1.941,4.735,4.735,0,0,1,.434-2.055,3.185,3.185,0,0,1,1.23-1.4,3.509,3.509,0,0,1,1.859-.484,3.177,3.177,0,0,1,2.66,1.262,5.5,5.5,0,0,1,.973,3.441v.422q0,3.32-1.312,4.848a5.043,5.043,0,0,1-3.961,1.566H93V15.781h.3a3.979,3.979,0,0,0,2.75-.932A4,4,0,0,0,97.105,12Zm-2.227,0a2.232,2.232,0,0,0,1.34-.445,2.625,2.625,0,0,0,.895-1.1V9.875A3.977,3.977,0,0,0,96.5,7.563,1.887,1.887,0,0,0,93.4,7.4a3.013,3.013,0,0,0-.578,1.926,3.136,3.136,0,0,0,.559,1.918A1.769,1.769,0,0,0,94.879,12Zm11.352,5h-1.445V5h1.445Zm7.531,0a3.036,3.036,0,0,1-.2-.891,3.225,3.225,0,0,1-2.406,1.047,2.984,2.984,0,0,1-2.051-.707,2.288,2.288,0,0,1-.8-1.793,2.39,2.39,0,0,1,1-2.051,4.733,4.733,0,0,1,2.824-.73h1.406v-.664A1.623,1.623,0,0,0,113.082,10a1.821,1.821,0,0,0-1.336-.449,2.108,2.108,0,0,0-1.3.391,1.151,1.151,0,0,0-.523.945h-1.453a2,2,0,0,1,.449-1.223,3.066,3.066,0,0,1,1.219-.934,4.1,4.1,0,0,1,1.691-.344,3.342,3.342,0,0,1,2.289.73,2.635,2.635,0,0,1,.859,2.012v3.891a4.757,4.757,0,0,0,.3,1.852V17Zm-2.4-1.1a2.54,2.54,0,0,0,1.289-.352,2.127,2.127,0,0,0,.883-.914V12.9H112.4q-2.656,0-2.656,1.555a1.316,1.316,0,0,0,.453,1.063A1.742,1.742,0,0,0,111.363,15.9Zm5.531-3.2a4.952,4.952,0,0,1,.922-3.129,3.137,3.137,0,0,1,4.766-.168V5h1.445V17H122.7l-.07-.906a2.943,2.943,0,0,1-2.414,1.063,2.887,2.887,0,0,1-2.395-1.2,5.008,5.008,0,0,1-.926-3.141Zm1.445.164a3.749,3.749,0,0,0,.594,2.25,1.92,1.92,0,0,0,1.641.813,2.108,2.108,0,0,0,2.008-1.234V10.813a2.125,2.125,0,0,0-1.992-1.2,1.929,1.929,0,0,0-1.656.82A4.128,4.128,0,0,0,118.34,12.867Zm7.547-.172a4.993,4.993,0,0,1,.488-2.234,3.643,3.643,0,0,1,1.359-1.531,3.7,3.7,0,0,1,1.988-.539,3.565,3.565,0,0,1,2.793,1.2,4.6,4.6,0,0,1,1.066,3.18v.1a5.036,5.036,0,0,1-.473,2.215,3.589,3.589,0,0,1-1.352,1.527,3.743,3.743,0,0,1-2.02.547,3.556,3.556,0,0,1-2.785-1.2,4.575,4.575,0,0,1-1.066-3.164Zm1.453.172a3.616,3.616,0,0,0,.652,2.258,2.211,2.211,0,0,0,3.5-.012,3.954,3.954,0,0,0,.648-2.418,3.61,3.61,0,0,0-.66-2.254,2.1,2.1,0,0,0-1.754-.863A2.075,2.075,0,0,0,128,10.43,3.925,3.925,0,0,0,127.34,12.867Zm12.977,1.891a1.064,1.064,0,0,0-.441-.91,4.249,4.249,0,0,0-1.539-.559,7.277,7.277,0,0,1-1.742-.562,2.479,2.479,0,0,1-.953-.781,1.869,1.869,0,0,1-.309-1.078,2.193,2.193,0,0,1,.879-1.758,3.432,3.432,0,0,1,2.246-.719,3.532,3.532,0,0,1,2.332.742,2.357,2.357,0,0,1,.895,1.9H140.23a1.3,1.3,0,0,0-.5-1.023,1.888,1.888,0,0,0-1.27-.43,1.976,1.976,0,0,0-1.234.344,1.082,1.082,0,0,0-.445.9.877.877,0,0,0,.414.789,5.1,5.1,0,0,0,1.5.508,7.8,7.8,0,0,1,1.754.578,2.558,2.558,0,0,1,1,.809,1.988,1.988,0,0,1,.324,1.152,2.163,2.163,0,0,1-.906,1.816,3.8,3.8,0,0,1-2.352.684,4.257,4.257,0,0,1-1.8-.359,2.922,2.922,0,0,1-1.223-1,2.42,2.42,0,0,1-.441-1.395h1.445a1.5,1.5,0,0,0,.582,1.152,2.258,2.258,0,0,0,1.434.426,2.331,2.331,0,0,0,1.316-.332A1.02,1.02,0,0,0,140.316,14.758Z" transform="translate(862 1785.717)" fill="#12263f"/>
    <path id="Trazado_122021" data-name="Trazado 122021" d="M52.137,6.852H48.48V17H46.988V6.852H43.34V5.625h8.8ZM55.168,17H53.723V8.547h1.445ZM53.605,6.3a.863.863,0,0,1,.215-.594.807.807,0,0,1,.637-.242.819.819,0,0,1,.641.242.854.854,0,0,1,.219.594.826.826,0,0,1-.219.586.834.834,0,0,1-.641.234.821.821,0,0,1-.637-.234A.834.834,0,0,1,53.605,6.3Zm7.383,10.852a3.693,3.693,0,0,1-2.8-1.129,4.19,4.19,0,0,1-1.078-3.02v-.266a5.073,5.073,0,0,1,.48-2.246,3.748,3.748,0,0,1,1.344-1.547,3.378,3.378,0,0,1,1.871-.559,3.166,3.166,0,0,1,2.563,1.086,4.7,4.7,0,0,1,.914,3.109v.6H58.559a3,3,0,0,0,.73,2.02,2.3,2.3,0,0,0,1.777.77,2.517,2.517,0,0,0,1.3-.312,3.259,3.259,0,0,0,.93-.828l.883.688A3.55,3.55,0,0,1,60.988,17.156Zm-.18-7.578a1.928,1.928,0,0,0-1.469.637A3.1,3.1,0,0,0,58.605,12H62.84v-.109a2.753,2.753,0,0,0-.594-1.707A1.815,1.815,0,0,0,60.809,9.578Zm6.516-1.031.047,1.063A3.08,3.08,0,0,1,69.9,8.391q2.68,0,2.7,3.023V17H71.16V11.406a1.946,1.946,0,0,0-.418-1.352,1.675,1.675,0,0,0-1.277-.437,2.086,2.086,0,0,0-1.234.375,2.546,2.546,0,0,0-.828.984V17H65.957V8.547Zm10.969,8.609a3.693,3.693,0,0,1-2.8-1.129,4.19,4.19,0,0,1-1.078-3.02v-.266A5.073,5.073,0,0,1,74.9,10.5a3.748,3.748,0,0,1,1.344-1.547,3.378,3.378,0,0,1,1.871-.559,3.166,3.166,0,0,1,2.563,1.086,4.7,4.7,0,0,1,.914,3.109v.6H75.863a3,3,0,0,0,.73,2.02,2.3,2.3,0,0,0,1.777.77,2.517,2.517,0,0,0,1.3-.312,3.259,3.259,0,0,0,.93-.828l.883.688A3.55,3.55,0,0,1,78.293,17.156Zm-.18-7.578a1.928,1.928,0,0,0-1.469.637A3.1,3.1,0,0,0,75.91,12h4.234v-.109a2.753,2.753,0,0,0-.594-1.707A1.815,1.815,0,0,0,78.113,9.578ZM91.824,17H90.371V7.367l-2.914,1.07V7.125L91.6,5.57h.227Zm11.367-4.852a6.61,6.61,0,0,1-.867,3.773,3.6,3.6,0,0,1-5.406.027,6.274,6.274,0,0,1-.906-3.605v-1.93a6.463,6.463,0,0,1,.867-3.727,3.668,3.668,0,0,1,5.422-.043,6.237,6.237,0,0,1,.891,3.629Zm-1.445-1.977A5.3,5.3,0,0,0,101.23,7.5a1.775,1.775,0,0,0-1.633-.84,1.751,1.751,0,0,0-1.617.836,5.171,5.171,0,0,0-.523,2.57v2.313a5.381,5.381,0,0,0,.535,2.723,1.771,1.771,0,0,0,1.621.879,1.747,1.747,0,0,0,1.59-.828,5.186,5.186,0,0,0,.543-2.609ZM110.723,17h-1.445V5h1.445Zm7.531,0a3.036,3.036,0,0,1-.2-.891,3.225,3.225,0,0,1-2.406,1.047,2.984,2.984,0,0,1-2.051-.707,2.288,2.288,0,0,1-.8-1.793,2.39,2.39,0,0,1,1-2.051,4.733,4.733,0,0,1,2.824-.73h1.406v-.664A1.623,1.623,0,0,0,117.574,10a1.821,1.821,0,0,0-1.336-.449,2.108,2.108,0,0,0-1.3.391,1.151,1.151,0,0,0-.523.945h-1.453a2,2,0,0,1,.449-1.223,3.066,3.066,0,0,1,1.219-.934,4.1,4.1,0,0,1,1.691-.344,3.342,3.342,0,0,1,2.289.73,2.635,2.635,0,0,1,.859,2.012v3.891a4.757,4.757,0,0,0,.3,1.852V17Zm-2.4-1.1a2.54,2.54,0,0,0,1.289-.352,2.127,2.127,0,0,0,.883-.914V12.9h-1.133q-2.656,0-2.656,1.555a1.316,1.316,0,0,0,.453,1.063A1.742,1.742,0,0,0,115.855,15.9Zm5.531-3.2a4.952,4.952,0,0,1,.922-3.129,3.137,3.137,0,0,1,4.766-.168V5h1.445V17h-1.328l-.07-.906a2.943,2.943,0,0,1-2.414,1.063,2.887,2.887,0,0,1-2.395-1.2,5.008,5.008,0,0,1-.926-3.141Zm1.445.164a3.749,3.749,0,0,0,.594,2.25,1.92,1.92,0,0,0,1.641.813,2.108,2.108,0,0,0,2.008-1.234V10.813a2.125,2.125,0,0,0-1.992-1.2,1.929,1.929,0,0,0-1.656.82A4.128,4.128,0,0,0,122.832,12.867Zm7.547-.172a4.993,4.993,0,0,1,.488-2.234,3.642,3.642,0,0,1,1.359-1.531,3.7,3.7,0,0,1,1.988-.539,3.565,3.565,0,0,1,2.793,1.2,4.6,4.6,0,0,1,1.066,3.18v.1a5.036,5.036,0,0,1-.473,2.215,3.589,3.589,0,0,1-1.352,1.527,3.743,3.743,0,0,1-2.02.547,3.556,3.556,0,0,1-2.785-1.2,4.575,4.575,0,0,1-1.066-3.164Zm1.453.172a3.616,3.616,0,0,0,.652,2.258,2.211,2.211,0,0,0,3.5-.012,3.954,3.954,0,0,0,.648-2.418,3.61,3.61,0,0,0-.66-2.254,2.1,2.1,0,0,0-1.754-.863,2.075,2.075,0,0,0-1.727.852A3.925,3.925,0,0,0,131.832,12.867Zm12.977,1.891a1.064,1.064,0,0,0-.441-.91,4.249,4.249,0,0,0-1.539-.559,7.277,7.277,0,0,1-1.742-.562,2.479,2.479,0,0,1-.953-.781,1.869,1.869,0,0,1-.309-1.078,2.193,2.193,0,0,1,.879-1.758,3.432,3.432,0,0,1,2.246-.719,3.532,3.532,0,0,1,2.332.742,2.357,2.357,0,0,1,.895,1.9h-1.453a1.3,1.3,0,0,0-.5-1.023,1.888,1.888,0,0,0-1.27-.43,1.976,1.976,0,0,0-1.234.344,1.082,1.082,0,0,0-.445.9.877.877,0,0,0,.414.789,5.1,5.1,0,0,0,1.5.508,7.8,7.8,0,0,1,1.754.578,2.558,2.558,0,0,1,1,.809,1.988,1.988,0,0,1,.324,1.152,2.163,2.163,0,0,1-.906,1.816,3.8,3.8,0,0,1-2.352.684,4.257,4.257,0,0,1-1.8-.359,2.922,2.922,0,0,1-1.223-1,2.42,2.42,0,0,1-.441-1.395h1.445a1.5,1.5,0,0,0,.582,1.152,2.258,2.258,0,0,0,1.434.426,2.331,2.331,0,0,0,1.316-.332A1.02,1.02,0,0,0,144.809,14.758Z" transform="translate(1177 1785.717)" fill="#12263f"/>
    <path id="Trazado_122023" data-name="Trazado 122023" d="M52.795,19H50.158V13.516H45.017V19H42.38V6.2h2.637v5.186h5.142V6.2h2.637Zm10-5.546H57.734v3.428h5.941V19H55.1V6.2h8.561V8.339H57.734v3.05H62.8Zm5.063,1.037V19H65.223V6.2h4.992a5.776,5.776,0,0,1,2.536.527,3.886,3.886,0,0,1,1.683,1.5,4.178,4.178,0,0,1,.589,2.21,3.674,3.674,0,0,1-1.288,2.966,5.363,5.363,0,0,1-3.564,1.085Zm0-2.136h2.355a2.316,2.316,0,0,0,1.6-.492,1.79,1.79,0,0,0,.549-1.406,2.111,2.111,0,0,0-.554-1.521,2.068,2.068,0,0,0-1.529-.6H67.859ZM86.466,8.339h-3.92V19H79.909V8.339H76.042V6.2H86.466Zm8.728,8.024H90.57L89.691,19h-2.8L91.651,6.2h2.443L98.885,19h-2.8Zm-3.911-2.136h3.2l-1.608-4.79ZM93.418,2.775h2.769L93.752,5.5H91.687Zm16.787,14.607a4.577,4.577,0,0,1-2.013,1.323,8.429,8.429,0,0,1-2.883.47,5.711,5.711,0,0,1-2.914-.725,4.836,4.836,0,0,1-1.934-2.1,7.408,7.408,0,0,1-.7-3.243v-.87a7.868,7.868,0,0,1,.646-3.318,4.779,4.779,0,0,1,1.863-2.145,6.135,6.135,0,0,1,6.412.343,4.639,4.639,0,0,1,1.521,3.16h-2.566a2.552,2.552,0,0,0-.778-1.608,2.484,2.484,0,0,0-1.657-.51,2.338,2.338,0,0,0-2.048,1.011,5.315,5.315,0,0,0-.712,3.006v.817a5.06,5.06,0,0,0,.765,3.041,2.618,2.618,0,0,0,2.241,1.028,2.925,2.925,0,0,0,2.118-.633V14.219h-2.4V12.276h5.036Zm12.647-4.491a7.725,7.725,0,0,1-.668,3.313,5.03,5.03,0,0,1-1.912,2.2,5.649,5.649,0,0,1-5.691.009,5.08,5.08,0,0,1-1.934-2.184,7.5,7.5,0,0,1-.694-3.265v-.633A7.685,7.685,0,0,1,112.635,9,5.072,5.072,0,0,1,114.56,6.8a5.64,5.64,0,0,1,5.687,0A5.072,5.072,0,0,1,122.171,9a7.663,7.663,0,0,1,.681,3.318Zm-2.672-.58a5.385,5.385,0,0,0-.721-3.059,2.546,2.546,0,0,0-4.1-.013,5.324,5.324,0,0,0-.729,3.028v.624a5.453,5.453,0,0,0,.721,3.041,2.524,2.524,0,0,0,4.113.04,5.421,5.421,0,0,0,.721-3.037ZM135.175,19h-2.637l-5.133-8.42V19h-2.637V6.2h2.637l5.142,8.438V6.2h2.628Zm12.814-6.108a7.725,7.725,0,0,1-.668,3.313,5.03,5.03,0,0,1-1.912,2.2,5.649,5.649,0,0,1-5.691.009,5.08,5.08,0,0,1-1.934-2.184,7.5,7.5,0,0,1-.694-3.265v-.633A7.685,7.685,0,0,1,137.772,9,5.072,5.072,0,0,1,139.7,6.8a5.64,5.64,0,0,1,5.687,0A5.072,5.072,0,0,1,147.308,9a7.663,7.663,0,0,1,.681,3.318Zm-2.672-.58a5.385,5.385,0,0,0-.721-3.059,2.546,2.546,0,0,0-4.1-.013,5.324,5.324,0,0,0-.729,3.028v.624a5.453,5.453,0,0,0,.721,3.041,2.524,2.524,0,0,0,4.113.04,5.421,5.421,0,0,0,.721-3.037Z" transform="translate(232.133 1757.057)" fill="#12263f"/>
    <path id="Trazado_122018" data-name="Trazado 122018" d="M58.143,12.892a7.725,7.725,0,0,1-.668,3.313,5.03,5.03,0,0,1-1.912,2.2,5.649,5.649,0,0,1-5.691.009,5.08,5.08,0,0,1-1.934-2.184,7.5,7.5,0,0,1-.694-3.265v-.633A7.685,7.685,0,0,1,47.926,9,5.072,5.072,0,0,1,49.851,6.8a5.64,5.64,0,0,1,5.687,0A5.072,5.072,0,0,1,57.462,9a7.663,7.663,0,0,1,.681,3.318Zm-2.672-.58a5.385,5.385,0,0,0-.721-3.059,2.546,2.546,0,0,0-4.1-.013,5.324,5.324,0,0,0-.729,3.028v.624a5.453,5.453,0,0,0,.721,3.041,2.524,2.524,0,0,0,4.113.04,5.421,5.421,0,0,0,.721-3.037ZM70.1,14.737a4.528,4.528,0,0,1-1.525,3.252,5.355,5.355,0,0,1-3.625,1.187,4.816,4.816,0,0,1-3.872-1.657,6.793,6.793,0,0,1-1.411-4.548v-.782a7.671,7.671,0,0,1,.65-3.252,4.874,4.874,0,0,1,1.859-2.158,5.809,5.809,0,0,1,6.376.435,4.866,4.866,0,0,1,1.564,3.331H67.486a2.673,2.673,0,0,0-.69-1.8,2.555,2.555,0,0,0-1.806-.558,2.24,2.24,0,0,0-1.973.945,5.3,5.3,0,0,0-.672,2.931v.967a5.667,5.667,0,0,0,.628,3.032,2.2,2.2,0,0,0,1.982.958,2.6,2.6,0,0,0,1.824-.558,2.521,2.521,0,0,0,.69-1.727Zm11.109-6.4h-3.92V19H74.658V8.339H70.791V6.2H81.214Zm8.728,8.024H85.319L84.44,19h-2.8L86.4,6.2h2.443L93.633,19h-2.8Zm-3.911-2.136h3.2l-1.608-4.79ZM88.167,2.775h2.769L88.5,5.5H86.435Zm16.787,14.607a4.577,4.577,0,0,1-2.013,1.323,8.429,8.429,0,0,1-2.883.47,5.711,5.711,0,0,1-2.914-.725,4.836,4.836,0,0,1-1.934-2.1,7.408,7.408,0,0,1-.7-3.243v-.87a7.868,7.868,0,0,1,.646-3.318A4.779,4.779,0,0,1,97.021,6.77a6.135,6.135,0,0,1,6.412.343,4.639,4.639,0,0,1,1.521,3.16h-2.566a2.552,2.552,0,0,0-.778-1.608,2.484,2.484,0,0,0-1.657-.51A2.338,2.338,0,0,0,97.9,9.165a5.315,5.315,0,0,0-.712,3.006v.817a5.06,5.06,0,0,0,.765,3.041,2.618,2.618,0,0,0,2.241,1.028,2.925,2.925,0,0,0,2.118-.633V14.219h-2.4V12.276h5.036ZM117.6,12.892a7.725,7.725,0,0,1-.668,3.313,5.03,5.03,0,0,1-1.912,2.2,5.649,5.649,0,0,1-5.691.009,5.08,5.08,0,0,1-1.934-2.184,7.5,7.5,0,0,1-.694-3.265v-.633A7.685,7.685,0,0,1,107.384,9,5.072,5.072,0,0,1,109.309,6.8,5.64,5.64,0,0,1,115,6.8,5.072,5.072,0,0,1,116.92,9a7.663,7.663,0,0,1,.681,3.318Zm-2.672-.58a5.385,5.385,0,0,0-.721-3.059,2.546,2.546,0,0,0-4.1-.013,5.324,5.324,0,0,0-.729,3.028v.624a5.453,5.453,0,0,0,.721,3.041,2.524,2.524,0,0,0,4.113.04,5.421,5.421,0,0,0,.721-3.037ZM129.923,19h-2.637l-5.133-8.42V19h-2.637V6.2h2.637l5.142,8.438V6.2h2.628Zm12.814-6.108a7.725,7.725,0,0,1-.668,3.313,5.03,5.03,0,0,1-1.912,2.2,5.649,5.649,0,0,1-5.691.009,5.08,5.08,0,0,1-1.934-2.184,7.5,7.5,0,0,1-.694-3.265v-.633A7.685,7.685,0,0,1,132.521,9,5.072,5.072,0,0,1,134.445,6.8a5.64,5.64,0,0,1,5.687,0A5.072,5.072,0,0,1,142.057,9a7.663,7.663,0,0,1,.681,3.318Zm-2.672-.58a5.385,5.385,0,0,0-.721-3.059,2.546,2.546,0,0,0-4.1-.013,5.324,5.324,0,0,0-.729,3.028v.624a5.453,5.453,0,0,0,.721,3.041,2.524,2.524,0,0,0,4.113.04,5.421,5.421,0,0,0,.721-3.037Z" transform="translate(547 1757.057)" fill="#12263f"/>
    <path id="Trazado_122016" data-name="Trazado 122016" d="M56.394,13.454H51.332v3.428h5.941V19H48.695V6.2h8.561V8.339H51.332v3.05h5.063ZM69.226,19H66.589l-5.133-8.42V19H58.82V6.2h2.637L66.6,14.641V6.2h2.628Zm10-5.546H74.166v3.428h5.941V19H71.529V6.2h8.561V8.339H74.166v3.05h5.063Zm9.65,2.909H84.255L83.376,19h-2.8L85.336,6.2H87.78L92.57,19h-2.8Zm-3.911-2.136h3.2l-1.608-4.79ZM87.1,2.775h2.769L87.437,5.5H85.372ZM103.89,17.383a4.577,4.577,0,0,1-2.013,1.323,8.429,8.429,0,0,1-2.883.47,5.711,5.711,0,0,1-2.914-.725,4.836,4.836,0,0,1-1.934-2.1,7.408,7.408,0,0,1-.7-3.243v-.87a7.868,7.868,0,0,1,.646-3.318A4.779,4.779,0,0,1,95.958,6.77a6.135,6.135,0,0,1,6.412.343,4.639,4.639,0,0,1,1.521,3.16h-2.566a2.552,2.552,0,0,0-.778-1.608,2.484,2.484,0,0,0-1.657-.51,2.338,2.338,0,0,0-2.048,1.011,5.315,5.315,0,0,0-.712,3.006v.817a5.06,5.06,0,0,0,.765,3.041,2.618,2.618,0,0,0,2.241,1.028,2.925,2.925,0,0,0,2.118-.633V14.219h-2.4V12.276h5.036Zm12.647-4.491a7.725,7.725,0,0,1-.668,3.313,5.03,5.03,0,0,1-1.912,2.2,5.649,5.649,0,0,1-5.691.009,5.08,5.08,0,0,1-1.934-2.184,7.5,7.5,0,0,1-.694-3.265v-.633A7.685,7.685,0,0,1,106.32,9,5.072,5.072,0,0,1,108.245,6.8a5.64,5.64,0,0,1,5.687,0A5.072,5.072,0,0,1,115.856,9a7.663,7.663,0,0,1,.681,3.318Zm-2.672-.58a5.385,5.385,0,0,0-.721-3.059,2.546,2.546,0,0,0-4.1-.013,5.324,5.324,0,0,0-.729,3.028v.624a5.453,5.453,0,0,0,.721,3.041,2.524,2.524,0,0,0,4.113.04,5.421,5.421,0,0,0,.721-3.037ZM128.86,19h-2.637l-5.133-8.42V19h-2.637V6.2h2.637l5.142,8.438V6.2h2.628Zm12.814-6.108a7.725,7.725,0,0,1-.668,3.313,5.03,5.03,0,0,1-1.912,2.2,5.649,5.649,0,0,1-5.691.009,5.08,5.08,0,0,1-1.934-2.184,7.5,7.5,0,0,1-.694-3.265v-.633A7.685,7.685,0,0,1,131.457,9,5.072,5.072,0,0,1,133.382,6.8a5.64,5.64,0,0,1,5.687,0A5.072,5.072,0,0,1,140.993,9a7.663,7.663,0,0,1,.681,3.318ZM139,12.312a5.385,5.385,0,0,0-.721-3.059,2.546,2.546,0,0,0-4.1-.013,5.324,5.324,0,0,0-.729,3.028v.624a5.453,5.453,0,0,0,.721,3.041,2.524,2.524,0,0,0,4.113.04A5.421,5.421,0,0,0,139,12.936Z" transform="translate(862 1757.057)" fill="#12263f"/>
    <path id="Trazado_122017" data-name="Trazado 122017" d="M48.374,19V6.2h3.938a5.98,5.98,0,0,1,3.019.76,5.3,5.3,0,0,1,2.079,2.162,6.669,6.669,0,0,1,.747,3.186V12.9a6.688,6.688,0,0,1-.734,3.173,5.256,5.256,0,0,1-2.07,2.153A6.025,6.025,0,0,1,52.338,19ZM51.011,8.339v8.543h1.274a2.863,2.863,0,0,0,2.364-1.011,4.567,4.567,0,0,0,.835-2.892V12.3a4.64,4.64,0,0,0-.809-2.958,2.854,2.854,0,0,0-2.364-1.006Zm16.761,5.115H62.709v3.428H68.65V19H60.072V6.2h8.561V8.339H62.709v3.05h5.063Zm12.472,1.283a4.528,4.528,0,0,1-1.525,3.252,5.355,5.355,0,0,1-3.625,1.187,4.816,4.816,0,0,1-3.872-1.657,6.793,6.793,0,0,1-1.411-4.548v-.782a7.671,7.671,0,0,1,.65-3.252A4.874,4.874,0,0,1,72.32,6.779a5.809,5.809,0,0,1,6.376.435,4.866,4.866,0,0,1,1.564,3.331H77.624a2.673,2.673,0,0,0-.69-1.8,2.555,2.555,0,0,0-1.806-.558,2.24,2.24,0,0,0-1.973.945,5.3,5.3,0,0,0-.672,2.931v.967a5.667,5.667,0,0,0,.628,3.032,2.2,2.2,0,0,0,1.982.958,2.6,2.6,0,0,0,1.824-.558,2.521,2.521,0,0,0,.69-1.727ZM89.2,16.363H84.576L83.7,19h-2.8L85.657,6.2H88.1L92.891,19h-2.8Zm-3.911-2.136h3.2l-1.608-4.79ZM87.424,2.775h2.769L87.758,5.5H85.692Zm16.787,14.607a4.577,4.577,0,0,1-2.013,1.323,8.429,8.429,0,0,1-2.883.47,5.711,5.711,0,0,1-2.914-.725,4.836,4.836,0,0,1-1.934-2.1,7.408,7.408,0,0,1-.7-3.243v-.87a7.868,7.868,0,0,1,.646-3.318A4.779,4.779,0,0,1,96.279,6.77a6.135,6.135,0,0,1,6.412.343,4.639,4.639,0,0,1,1.521,3.16h-2.566a2.552,2.552,0,0,0-.778-1.608,2.484,2.484,0,0,0-1.657-.51,2.338,2.338,0,0,0-2.048,1.011,5.315,5.315,0,0,0-.712,3.006v.817a5.06,5.06,0,0,0,.765,3.041,2.618,2.618,0,0,0,2.241,1.028,2.925,2.925,0,0,0,2.118-.633V14.219h-2.4V12.276h5.036Zm12.647-4.491a7.725,7.725,0,0,1-.668,3.313,5.03,5.03,0,0,1-1.912,2.2,5.649,5.649,0,0,1-5.691.009,5.08,5.08,0,0,1-1.934-2.184,7.5,7.5,0,0,1-.694-3.265v-.633A7.685,7.685,0,0,1,106.641,9,5.072,5.072,0,0,1,108.566,6.8a5.64,5.64,0,0,1,5.687,0A5.072,5.072,0,0,1,116.177,9a7.663,7.663,0,0,1,.681,3.318Zm-2.672-.58a5.385,5.385,0,0,0-.721-3.059,2.546,2.546,0,0,0-4.1-.013,5.324,5.324,0,0,0-.729,3.028v.624a5.453,5.453,0,0,0,.721,3.041,2.524,2.524,0,0,0,4.113.04,5.421,5.421,0,0,0,.721-3.037ZM129.181,19h-2.637l-5.133-8.42V19h-2.637V6.2h2.637l5.142,8.438V6.2h2.628ZM142,12.892a7.725,7.725,0,0,1-.668,3.313,5.03,5.03,0,0,1-1.912,2.2,5.649,5.649,0,0,1-5.691.009,5.08,5.08,0,0,1-1.934-2.184,7.5,7.5,0,0,1-.694-3.265v-.633A7.685,7.685,0,0,1,131.778,9,5.072,5.072,0,0,1,133.7,6.8a5.64,5.64,0,0,1,5.687,0A5.072,5.072,0,0,1,141.314,9,7.663,7.663,0,0,1,142,12.32Zm-2.672-.58a5.385,5.385,0,0,0-.721-3.059,2.546,2.546,0,0,0-4.1-.013,5.324,5.324,0,0,0-.729,3.028v.624a5.453,5.453,0,0,0,.721,3.041,2.524,2.524,0,0,0,4.113.04,5.421,5.421,0,0,0,.721-3.037Z" transform="translate(1177 1757.057)" fill="#12263f"/>
    <g id="Grupo_112358" data-name="Grupo 112358" transform="translate(0 -505.998)">
      <path id="Trazado_113723" data-name="Trazado 113723" d="M-72.489,10.553A4.06,4.06,0,0,0-74.6,18.047,152.256,152.256,0,0,1-57.843,30.273a166.816,166.816,0,0,1,20.8,20.85,9.589,9.589,0,0,0,16.4-3.068c1.858-5.423,2.582-11.711-.211-17.551A18.6,18.6,0,0,0-29.2,22.088C-48.186,12.338-62.988,10.355-72.489,10.553Z" transform="translate(425.295 2059.199)" fill="url(#linear-gradient)"/>
      <path id="blob" d="M14.1,121.746C2.669,86.632,14.228,38.14,39.19,19.886,64.156,1.492,102.4,13.476,132.9,38.419s53.245,62.7,45.621,91.826c-7.625,29.263-45.622,49.746-82.021,49.049C60.221,178.6,25.544,156.86,14.1,121.746Z" transform="translate(224.955 2058.768)" fill="url(#linear-gradient-2)"/>
      <rect id="Rectángulo_40200" data-name="Rectángulo 40200" width="127" height="32" transform="translate(262 2188.043)" fill="url(#radial-gradient)" style="mix-blend-mode: multiply;isolation: isolate"/>
      <path id="Trazado_113728" data-name="Trazado 113728" d="M655.285,210.315,616.942,228.78l-9.47,41.491,26.535,33.273h42.558L703.1,270.271l-9.47-41.491Z" transform="translate(-335.838 1896.98)" fill="#f7f7f7" fill-rule="evenodd"/>
    </g>
    <g id="Grupo_112359" data-name="Grupo 112359" transform="translate(0 -503.023)">
      <path id="Trazado_113724" data-name="Trazado 113724" d="M10.265,126.8a4.06,4.06,0,0,1,7.494-2.112,152.255,152.255,0,0,0,12.226,16.757,166.95,166.95,0,0,0,20.849,20.8,9.589,9.589,0,0,1-3.067,16.4c-5.423,1.857-11.711,2.582-17.551-.212A18.6,18.6,0,0,1,21.8,170.09C12.05,151.1,10.066,136.3,10.265,126.8Z" transform="translate(547.382 2057.74)" fill="url(#linear-gradient-3)"/>
      <path id="blob-2" data-name="blob" d="M121.457,14.4C86.343,3.032,37.852,14.521,19.6,39.334,1.2,64.151,13.187,102.165,38.13,132.479s62.7,52.925,91.827,45.347c29.262-7.579,49.745-45.348,49.049-81.529C178.309,60.239,156.572,25.77,121.457,14.4Z" transform="translate(547.382 2057.74)" fill="url(#linear-gradient-4)"/>
      <rect id="Rectángulo_40201" data-name="Rectángulo 40201" width="127" height="32" transform="translate(586 2188.043)" fill="url(#radial-gradient)" style="mix-blend-mode: multiply;isolation: isolate"/>
      <path id="Trazado_113729" data-name="Trazado 113729" d="M791.487,209.116h-39.61l-28.009,28.009v39.61l28.009,28.009h39.61L819.5,276.735v-39.61Z" transform="translate(-112.234 1895.623)" fill="#f7f7f7" fill-rule="evenodd"/>
    </g>
    <g id="Grupo_112360" data-name="Grupo 112360" transform="translate(0 -505.998)">
      <path id="Trazado_113723-2" data-name="Trazado 113723" d="M-72.489,10.553A4.06,4.06,0,0,0-74.6,18.047,152.256,152.256,0,0,1-57.843,30.273a166.816,166.816,0,0,1,20.8,20.85,9.589,9.589,0,0,0,16.4-3.068c1.858-5.423,2.582-11.711-.211-17.551A18.6,18.6,0,0,0-29.2,22.088C-48.186,12.338-62.988,10.355-72.489,10.553Z" transform="translate(1065.295 2059.199)" fill="url(#linear-gradient)"/>
      <path id="blob-3" data-name="blob" d="M14.1,121.746C2.669,86.632,14.228,38.14,39.19,19.886,64.156,1.492,102.4,13.476,132.9,38.419s53.245,62.7,45.621,91.826c-7.625,29.263-45.622,49.746-82.021,49.049C60.221,178.6,25.544,156.86,14.1,121.746Z" transform="translate(864.955 2058.768)" fill="url(#linear-gradient-2)"/>
      <rect id="Rectángulo_40202" data-name="Rectángulo 40202" width="127" height="32" transform="translate(889 2188.043)" fill="url(#radial-gradient)" style="mix-blend-mode: multiply;isolation: isolate"/>
      <path id="Trazado_113730" data-name="Trazado 113730" d="M888.078,209.842,856.87,221.2l-16.606,28.762,5.767,32.707,25.441,21.348h33.211l25.441-21.348,5.767-32.707L919.286,221.2Z" transform="translate(71.717 1896.896)" fill="#f7f7f7" fill-rule="evenodd"/>
    </g>
    <g id="Grupo_112361" data-name="Grupo 112361" transform="translate(0 -503.023)">
      <path id="Trazado_113724-2" data-name="Trazado 113724" d="M10.265,126.8a4.06,4.06,0,0,1,7.494-2.112,152.255,152.255,0,0,0,12.226,16.757,166.95,166.95,0,0,0,20.849,20.8,9.589,9.589,0,0,1-3.067,16.4c-5.423,1.857-11.711,2.582-17.551-.212A18.6,18.6,0,0,1,21.8,170.09C12.05,151.1,10.066,136.3,10.265,126.8Z" transform="translate(1187.382 2057.74)" fill="url(#linear-gradient-3)"/>
      <path id="blob-4" data-name="blob" d="M121.457,14.4C86.343,3.032,37.852,14.521,19.6,39.334,1.2,64.151,13.187,102.165,38.13,132.479s62.7,52.925,91.827,45.347c29.262-7.579,49.745-45.348,49.049-81.529C178.309,60.239,156.572,25.77,121.457,14.4Z" transform="translate(1187.382 2057.74)" fill="url(#linear-gradient-4)"/>
      <rect id="Rectángulo_40203" data-name="Rectángulo 40203" width="127" height="32" transform="translate(1216 2188.043)" fill="url(#radial-gradient)" style="mix-blend-mode: multiply;isolation: isolate"/>
      <path id="Trazado_113731" data-name="Trazado 113731" d="M1019.25,211.456H989.7l-23.907,17.369-9.132,28.1,9.132,28.1L989.7,302.4h29.551l23.907-17.369,9.132-28.1-9.132-28.1Z" transform="translate(286.159 1898.283)" fill="#f7f7f7" fill-rule="evenodd"/>
    </g>
  </g>
</svg>
